<svg width="39" height="39" viewBox="0 0 39 39" fill="none" xmlns="http://www.w3.org/2000/svg">
<circle cx="19.5" cy="19.5" r="19.5" fill="#D5D5FB"/>
<path d="M23.7621 17.6471H22.2857V12.9412C22.2857 12.4235 21.8679 12 21.3571 12H17.6429C17.1321 12 16.7143 12.4235 16.7143 12.9412V17.6471H15.2379C14.4114 17.6471 13.9936 18.6635 14.5786 19.2565L18.8407 23.5765C19.2029 23.9435 19.7879 23.9435 20.15 23.5765L24.4121 19.2565C24.9971 18.6635 24.5886 17.6471 23.7621 17.6471ZM13 27.0588C13 27.5765 13.4179 28 13.9286 28H25.0714C25.5821 28 26 27.5765 26 27.0588C26 26.5412 25.5821 26.1176 25.0714 26.1176H13.9286C13.4179 26.1176 13 26.5412 13 27.0588Z" fill="#7A7AFF"/>
</svg>
